<?xml version="1.0" encoding="utf-8"?>
<!-- Generator: Adobe Illustrator 19.0.0, SVG Export Plug-In . SVG Version: 6.00 Build 0)  -->
<svg version="1.1" id="Layer_1" xmlns="http://www.w3.org/2000/svg" xmlns:xlink="http://www.w3.org/1999/xlink" x="0px" y="0px"
	 viewBox="0 0 356 299" style="enable-background:new 0 0 356 299;" xml:space="preserve">
<style type="text/css">
	.st0{fill:#FECE91;}
</style>
<g id="XMLID_407_">
	<ellipse id="XMLID_401_" class="st0" cx="137.3" cy="150.5" rx="137.3" ry="149.9"/>
	<path id="XMLID_410_" class="st0" d="M271.5,0.5c43-3.1,76.6,9.3,74.9,27.7S308.5,63.9,265.5,67c-43,3.1-76.6-9.3-74.9-27.7
		C192.3,21,228.5,3.6,271.5,0.5z"/>
	<path id="XMLID_419_" class="st0" d="M276.1,75.8c42.5-7,77.1,1,77.3,17.9s-34.1,36.2-76.6,43.2s-77.1-1-77.3-17.9
		C199.3,102.2,233.6,82.8,276.1,75.8z"/>
	<path id="XMLID_440_" class="st0" d="M271.4,153.8c36.8-6.1,67.8,1.1,69.3,16c1.5,14.9-27.2,32-64,38.1s-67.8-1.1-69.3-16
		C206,177,234.6,159.9,271.4,153.8z"/>
	<path id="XMLID_448_" class="st0" d="M275.4,225.8c31.7-2.1,57.5,7.5,57.6,21.4c0.1,14-25.5,27-57.3,29.1
		c-31.7,2.1-57.5-7.5-57.6-21.4C218,241,243.7,228,275.4,225.8z"/>
</g>
</svg>
