<?xml version="1.0" encoding="utf-8"?>
<!-- Generator: Adobe Illustrator 19.0.0, SVG Export Plug-In . SVG Version: 6.00 Build 0)  -->
<svg version="1.1" xmlns="http://www.w3.org/2000/svg" xmlns:xlink="http://www.w3.org/1999/xlink" x="0px" y="0px"
	 viewBox="0 0 259.9 404.9" style="enable-background:new 0 0 259.9 404.9;" xml:space="preserve">
<style type="text/css">
	.st0{fill:none;}
	.st1{fill:#ED1C24;}
	.st2{display:none;}
	.st3{display:inline;fill:#009444;}
	.st4{display:inline;fill:#FFFFFF;}
	.st5{fill:#DCDDDE;}
	.st6{fill:#FFFFFF;}
	.st7{fill:url(#New_Pattern_Swatch_5);}
	.st8{display:inline;}
	.st9{fill:#D9E0F1;}
</style>

<pattern  x="631.2" y="-741.4" width="15.6" height="14.8" patternUnits="userSpaceOnUse" id="New_Pattern_Swatch_5" viewBox="0 -14.8 15.6 14.8" style="overflow:visible;">
	<g id="XMLID_408_">
		<polygon id="XMLID_415_" class="st0" points="0,0 15.6,0 15.6,-14.8 0,-14.8 		"/>
		<polygon id="XMLID_409_" class="st1" points="7.8,-14.8 10.2,-9.9 15.6,-9.2 11.7,-5.4 12.6,0 7.8,-2.5 3,0 3.9,-5.4 0,-9.2 
			5.4,-9.9 		"/>
	</g>
</pattern>

<g id="Deck">
	<g id="Card_Depth">
		<g id="XMLID_405_">
			<g id="XMLID_476_">
				<path id="XMLID_541_" 
					class="st5" 
					d = "
						M 17.2 ,  43.8
						L 46 , 15
						l 198.8 , 345
						l -26.5 , 26.4
						c 0 , 0-3.2 , 3.4-8.1 , 3.4
						c -4.9 , 0-176.4 , 0-183.4 , 0
						c -7 , 0-11.7-6.2-11.7-11.8
						c 0-5.7 , 0-321.6 , 0-327.6
						C 15 , 46.8 , 17.2 , 43.8 , 17.2 , 43.8
						z
						"
				/>
			</g>
		</g>
	</g>
	<g id="Card_Face">
		<g id="XMLID_468_">
			<path id="XMLID_465_" class="st6" d="M236.6,363.2h-183c-6.6,0-12-5.4-12-12v-327c0-6.6,5.4-12,12-12h183c6.6,0,12,5.4,12,12v327
				C248.6,357.8,243.2,363.2,236.6,363.2z"/>
		</g>
		<g id="XMLID_434_">
			<path id="XMLID_449_" class="st1" d="M234.6,26.2v323h-179v-323H234.6 M239.6,21.2h-189v333h189V21.2L239.6,21.2z"/>
		</g>
		<g id="XMLID_402_">
			<rect id="XMLID_446_" x="60.4" y="31.2" class="st7" width="169.6" height="313.7"/>
			<path id="XMLID_442_" class="st1" d="M229,32.2v311.7H61.4V32.2H229 M231,30.2H59.4v315.7H231V30.2L231,30.2z"/>
		</g>
	</g>
</g>
</svg>
