<?xml version="1.0" encoding="utf-8"?>
<!-- Generator: Adobe Illustrator 19.0.0, SVG Export Plug-In . SVG Version: 6.00 Build 0)  -->
<svg version="1.1" xmlns="http://www.w3.org/2000/svg" xmlns:xlink="http://www.w3.org/1999/xlink" x="0px" y="0px"
	 viewBox="0 0 259.9 404.9" style="enable-background:new 0 0 259.9 404.9;" xml:space="preserve">
<style type="text/css">
	.st0{fill:none;}
	.st1{fill:#ED1C24;}
	.st2{display:none;}
	.st3{display:inline;fill:#009444;}
	.st4{display:inline;fill:#FFFFFF;}
	.st5{fill:#DCDDDE;}
	.st6{fill:#FFFFFF;}
	.st7{fill:url(#New_Pattern_Swatch_5);}
	.st8{display:inline;}
	.st9{fill:#D9E0F1;}
</style>
<pattern  x="631.2" y="-741.4" width="15.6" height="14.8" patternUnits="userSpaceOnUse" id="New_Pattern_Swatch_5" viewBox="0 -14.8 15.6 14.8" style="overflow:visible;">
	<g id="XMLID_408_">
		<polygon id="XMLID_415_" class="st0" points="0,0 15.6,0 15.6,-14.8 0,-14.8 		"/>
		<polygon id="XMLID_409_" class="st1" points="7.8,-14.8 10.2,-9.9 15.6,-9.2 11.7,-5.4 12.6,0 7.8,-2.5 3,0 3.9,-5.4 0,-9.2 
			5.4,-9.9 		"/>
	</g>
</pattern>
<g id="App" class="st2">
	<rect id="XMLID_395_" x="831.8" y="-604.5" class="st3" width="320" height="630"/>
	<rect id="XMLID_396_" x="819.2" y="569.1" class="st3" width="320" height="630"/>
	<rect id="XMLID_397_" x="840.1" y="1725.2" class="st3" width="320" height="630"/>
</g>
<g id="Deck">
	<g id="Card_Depth">
		<g id="XMLID_404_" class="st2">
			<path id="XMLID_466_" class="st4" d="M210,389.7H27c-6.6,0-12-5.4-12-12v-327c0-6.6,5.4-12,12-12h183c6.6,0,12,5.4,12,12v327
				C222,384.3,216.6,389.7,210,389.7z"/>
		</g>
		<g id="XMLID_405_">
			
				<image style="overflow:visible;opacity:0.75;" width="1083" height="1687" id="XMLID_542_" xlink:href="6D7D57AC.png"  transform="matrix(0.24 0 0 0.24 0 0)">
			</image>
			<g id="XMLID_476_">
				<path id="XMLID_541_" class="st5" d="M17.2,43.8L46,15l198.8,345l-26.5,26.4c0,0-3.2,3.4-8.1,3.4c-4.9,0-176.4,0-183.4,0
					c-7,0-11.7-6.2-11.7-11.8c0-5.7,0-321.6,0-327.6C15,46.8,17.2,43.8,17.2,43.8z"/>
			</g>
		</g>
	</g>
	<g id="Card_Face">
		<g id="XMLID_468_">
			<path id="XMLID_465_" class="st6" d="M236.6,363.2h-183c-6.6,0-12-5.4-12-12v-327c0-6.6,5.4-12,12-12h183c6.6,0,12,5.4,12,12v327
				C248.6,357.8,243.2,363.2,236.6,363.2z"/>
		</g>
		<g id="XMLID_434_">
			<path id="XMLID_449_" class="st1" d="M234.6,26.2v323h-179v-323H234.6 M239.6,21.2h-189v333h189V21.2L239.6,21.2z"/>
		</g>
		<g id="XMLID_402_">
			<rect id="XMLID_446_" x="60.4" y="31.2" class="st7" width="169.6" height="313.7"/>
			<path id="XMLID_442_" class="st1" d="M229,32.2v311.7H61.4V32.2H229 M231,30.2H59.4v315.7H231V30.2L231,30.2z"/>
		</g>
	</g>
</g>
<g id="Cards" class="st2">
	<g id="Card" class="st8">
		<g id="XMLID_398_">
			
				<image style="overflow:visible;opacity:0.75;" width="988" height="1588" id="XMLID_453_" xlink:href="6D7D57AD.png"  transform="matrix(0.24 0 0 0.24 334.8505 10.4623)">
			</image>
			<g id="XMLID_439_">
				<path id="XMLID_451_" class="st6" d="M544.9,376.5h-183c-6.6,0-12-5.4-12-12v-327c0-6.6,5.4-12,12-12h183c6.6,0,12,5.4,12,12
					v327C556.9,371.1,551.5,376.5,544.9,376.5z"/>
			</g>
		</g>
		<g id="XMLID_399_">
			<path id="XMLID_430_" class="st1" d="M542.9,39.5v323h-179v-323H542.9 M547.9,34.5h-189v333h189V34.5L547.9,34.5z"/>
		</g>
		<g id="XMLID_400_">
			<rect id="XMLID_428_" x="368.6" y="44.5" class="st7" width="169.6" height="313.7"/>
			<path id="XMLID_425_" class="st1" d="M537.2,45.5v311.7H369.6V45.5H537.2 M539.2,43.5H367.6v315.7h171.6V43.5L539.2,43.5z"/>
		</g>
	</g>
</g>
<g id="Template" class="st2">
	<g id="XMLID_795_" class="st8">
		<path id="XMLID_531_" class="st9" d="M1139.2,569.1v630h-320v-630H1139.2 M1169.2,539.1h-30h-320h-30v30v630v30h30h320h30v-30
			v-630V539.1L1169.2,539.1z"/>
	</g>
	<g id="XMLID_508_" class="st8">
		<path id="XMLID_523_" class="st9" d="M2072.3,1725v830.8h-768V1725H2072.3 M2102.3,1695h-30h-768h-30v30v830.8v30h30h768h30v-30
			V1725V1695L2102.3,1695z"/>
	</g>
	<rect id="XMLID_627_" x="840.2" y="1725" style="display:inline;fill:none;" width="320" height="630"/>
	<g id="XMLID_615_" class="st8">
		<path id="XMLID_522_" class="st9" d="M3296.2-604.5v700h-1080v-700H3296.2 M3326.2-634.5h-30h-1080h-30v30v700v30h30h1080h30v-30
			v-700V-634.5L3326.2-634.5z"/>
	</g>
	<g id="XMLID_904_" class="st8">
		<path id="XMLID_518_" class="st9" d="M5369.9-604.5v1078h-1920v-1078H5369.9 M5399.9-634.5h-30h-1920h-30v30v1078v30h30h1920h30
			v-30v-1078V-634.5L5399.9-634.5z"/>
	</g>
	
		<text id="XMLID_565_" transform="matrix(1 0 0 1 1001.9551 1750.1302)" class="st8" style="font-family:'MyriadPro-Regular'; font-size:30px;"> </text>
	<g id="XMLID_532_" class="st8">
		<path id="XMLID_505_" class="st9" d="M1160.1,1725.1v630h-320v-630H1160.1 M1190.1,1695.1h-30h-320h-30v30v630v30h30h320h30v-30
			v-630V1695.1L1190.1,1695.1z"/>
	</g>
	<g id="XMLID_617_" class="st8">
		<path id="XMLID_499_" class="st9" d="M1151.8-604.5v630h-320v-630H1151.8 M1181.8-634.5h-30h-320h-30v30v630v30h30h320h30v-30
			v-630V-634.5L1181.8-634.5z"/>
	</g>
	<g id="XMLID_648_" class="st8">
		<path id="XMLID_495_" class="st9" d="M2066-604.5v830.8h-768v-830.8H2066 M2096-634.5h-30h-768h-30v30v830.8v30h30h768h30v-30
			v-830.8V-634.5L2096-634.5z"/>
	</g>
	<g id="XMLID_650_" class="st8">
		<path id="XMLID_490_" class="st9" d="M3296.2-604.5v700h-1080v-700H3296.2 M3326.2-634.5h-30h-1080h-30v30v700v30h30h1080h30v-30
			v-700V-634.5L3326.2-634.5z"/>
	</g>
	<g id="XMLID_669_" class="st8">
		<path id="XMLID_477_" class="st9" d="M3296.2,1725v700h-1080v-700H3296.2 M3326.2,1695h-30h-1080h-30v30v700v30h30h1080h30v-30
			v-700V1695L3326.2,1695z"/>
	</g>
	<g id="XMLID_718_" class="st8">
		<path id="XMLID_472_" class="st9" d="M5369.9,1725v1078h-1920V1725H5369.9 M5399.9,1695h-30h-1920h-30v30v1078v30h30h1920h30v-30
			V1725V1695L5399.9,1695z"/>
	</g>
	<g id="XMLID_876_" class="st8">
		<path id="XMLID_460_" class="st9" d="M5369.9,570.6v1078h-1920v-1078H5369.9 M5399.9,540.6h-30h-1920h-30v30v1078v30h30h1920h30
			v-30v-1078V540.6L5399.9,540.6z"/>
	</g>
	<g id="XMLID_911_" class="st8">
		<path id="XMLID_456_" class="st9" d="M3319.9,566.9v700h-1080v-700H3319.9 M3349.9,536.9h-30h-1080h-30v30v700v30h30h1080h30v-30
			v-700V536.9L3349.9,536.9z"/>
	</g>
	<g id="XMLID_1421_" class="st8">
		<path id="XMLID_459_" class="st9" d="M2066,569.8v830.8h-768V569.8H2066 M2096,539.8h-30h-768h-30v30v830.8v30h30h768h30v-30
			V569.8V539.8L2096,539.8z"/>
	</g>
	
		<text id="XMLID_1431_" transform="matrix(1 0 0 1 3263.4412 599.7234)" style="display:inline;opacity:0.9;fill:#FFFFFF; font-family:'MaterialIcons-Regular'; font-size:35.0229px;">chat</text>
	
		<text id="XMLID_1481_" transform="matrix(1 0 0 1 2007.4413 600.4528)" style="display:inline;opacity:0.9;fill:#FFFFFF; font-family:'MaterialIcons-Regular'; font-size:35.0229px;">chat</text>
</g>
<g id="Notes" class="st2">
	
		<text id="XMLID_392_" transform="matrix(1 0 0 1 470.1584 -315.9533)" class="st8" style="font-family:'MyriadPro-Regular'; font-size:60px;">INITIAL</text>
	
		<text id="XMLID_393_" transform="matrix(1 0 0 1 360.6597 922.1044)" class="st8" style="font-family:'MyriadPro-Regular'; font-size:60px;">SHUFFLING</text>
	
		<text id="XMLID_394_" transform="matrix(1 0 0 1 429.5999 2089.2212)" class="st8" style="font-family:'MyriadPro-Regular'; font-size:60px;">RESULTS</text>
</g>
</svg>
