<?xml version="1.0" encoding="utf-8"?>
<!-- Generator: Adobe Illustrator 19.0.0, SVG Export Plug-In . SVG Version: 6.00 Build 0)  -->
<svg version="1.1" xmlns="http://www.w3.org/2000/svg" xmlns:xlink="http://www.w3.org/1999/xlink" x="0px" y="0px"
	 viewBox="0 0 876 801" style="enable-background:new 0 0 876 801;" xml:space="preserve">
<style type="text/css">
	.st0{display:none;}
	.st1{display:inline;fill:#FDCE91;}
	.st2{display:inline;opacity:0.2;fill:#231F20;}
	.st3{display:inline;fill:#231F20;}
	.st4{fill:#FDCE91;}
	.st5{opacity:0.2;fill:#231F20;}
</style>
<g id="Layer_1" class="st0">
	<path id="XMLID_455_" class="st1" d="M875.9,241.3l-10.1,34.8l-38.7,5l-49.9,15.3l-39.4,19.5l33.3-12l33.6-10.5l24.7-6.7l21.7-6
		l15,9l2.6,29.5L844,338.3l-29.2,17.9L721,385l-116,39l-20.3,9.3L140,801L0.9,653.8l498-382.5l12-33c0,0,44.5-53.6,47.9-53.6
		c3.4,0,63.9-66.2,63.9-66.2l38.1-30.3L718,64.7l49.3-14.6l23.5-1.1l37,5.6l26.9,13.5l-3.4,21.3l-11.2,17.9l-11.2,5.6l-22.4,5.6
		l-56.1,20.2L736,155.5l80.7-19.1h34.8l24.7,16.8"/>
	<polyline id="XMLID_470_" class="st1" points="872.8,191.4 840.2,207.1 804.4,213.8 761.7,230.7 738.2,240.8 818.9,228.4 
		854.1,225.1 875.9,241.3 	"/>
	<polygon id="XMLID_419_" class="st2" points="846.8,82.1 851.6,89.4 840.4,107.3 828,113.5 801.4,119.7 750.5,138.7 748,125.7 
		800,109 832,96.4 	"/>
	<polyline id="XMLID_436_" class="st2" points="738.2,207.4 738,234.4 738.2,240.8 761.7,230.7 804.4,213.8 830.9,209 823.4,200 
		818.6,185.8 787.5,193.7 	"/>
	<polyline id="XMLID_402_" class="st2" points="737.8,315.9 777.3,296.5 827.2,281.1 830.5,280.8 820.8,272.5 817.4,261.3 
		788,264.7 737.3,284.1 	"/>
	<polygon id="XMLID_424_" class="st2" points="140,801 106,764.7 564,414 640,382 715.3,361.7 819.3,328.2 822.7,340 831.1,345.8 
		814.5,356.4 709.5,388.8 605,424 584.7,433.3 	"/>
	<path id="XMLID_410_" class="st3" d="M628,540"/>
	<path id="XMLID_401_" class="st3" d="M816.7,412.3"/>
</g>
<g id="Layer_2">
	<polygon id="XMLID_2_" class="st4" points="511.8,256 504.8,184 517.8,90 542.6,40.7 577.7,20.7 618.3,13.5 653.3,7.5 682.8,0 
		687.3,19 682.8,36.5 668.8,55 639.8,63.5 619.8,67.5 598.1,75 594.9,84.4 597.2,101.4 598.3,116.6 600.2,143.9 597.6,162.8 
		608.3,186.5 614.3,222 611.5,265.2 599.3,312.5 571.8,356 528.3,349.5 	"/>
	<polygon id="XMLID_1_" class="st5" points="578.1,122.8 572.3,85 576.6,58 626.1,47.5 663.3,34.8 679.1,13.8 684.8,17.8 
		686.3,22.5 682.8,36.5 668.8,55 639.8,63.5 619.8,67.5 598.1,75 595.3,83.8 597.7,111.5 600.2,143.9 597.6,162.8 	"/>
</g>
</svg>
