<?xml version="1.0" encoding="utf-8"?>
<!-- Generator: Adobe Illustrator 19.0.0, SVG Export Plug-In . SVG Version: 6.00 Build 0)  -->
<svg version="1.1" id="Layer_1" xmlns="http://www.w3.org/2000/svg" xmlns:xlink="http://www.w3.org/1999/xlink" x="0px" y="0px"
	 viewBox="0 0 186 315" style="enable-background:new 0 0 186 315;" xml:space="preserve">
<style type="text/css">
	.st0{fill:none;}
	.st1{fill:#EC1C24;}
	.st2{fill:#FFFFFF;}
	.st3{fill:url(#XMLID_2_);}
</style>
<pattern  width="15.6" height="14.8" patternUnits="userSpaceOnUse" id="New_Pattern_Swatch_5" viewBox="0 -14.8 15.6 14.8" style="overflow:visible;">
	<g id="XMLID_408_">
		<polygon id="XMLID_415_" class="st0" points="0,0 15.6,0 15.6,-14.8 0,-14.8 		"/>
		<polygon id="XMLID_409_" class="st1" points="7.8,-14.8 10.2,-9.9 15.6,-9.2 11.7,-5.4 12.6,0 7.8,-2.5 3,0 3.9,-5.4 0,-9.2 
			5.4,-9.9 		"/>
	</g>
</pattern>
<g id="XMLID_539_">
	<path id="XMLID_23_" class="st2" d="M173.9,315H12.2c-6.6,0-12-5.4-12-12V12.1c0-6.6,5.4-12,12-12h161.7c6.6,0,12,5.4,12,12V303
		C185.9,309.6,180.5,315,173.9,315z"/>
</g>
<g id="XMLID_446_">
	<path id="XMLID_18_" class="st1" d="M172.9,13.2V302H13.3V13.2H172.9 M177.9,8.2H8.3V307h169.6V8.2L177.9,8.2z"/>
</g>
<g id="XMLID_407_">
	<pattern  id="XMLID_2_" xlink:href="#New_Pattern_Swatch_5" patternTransform="matrix(1 0 0 1 -3.4074 -1.7456)">
	</pattern>
	<rect id="XMLID_16_" x="17.1" y="17.3" class="st3" width="152" height="281.3"/>
	<path id="XMLID_13_" class="st1" d="M168.1,18.3v279.3h-150V18.3H168.1 M170.1,16.3h-154v283.3h154V16.3L170.1,16.3z"/>
</g>
</svg>
