<?xml version="1.0" encoding="utf-8"?>
<!-- Generator: Adobe Illustrator 19.0.0, SVG Export Plug-In . SVG Version: 6.00 Build 0)  -->
<svg version="1.1" xmlns="http://www.w3.org/2000/svg" xmlns:xlink="http://www.w3.org/1999/xlink" x="0px" y="0px"
	 viewBox="0 0 210 339" style="enable-background:new 0 0 210 339;" xml:space="preserve">
<style type="text/css">
	.st0{fill:none;}
	.st1{fill:#EC1C24;}
	.st2{fill:#DBDCDD;}
	.st3{display:none;}
	.st4{display:inline;}
	.st5{fill:#FFFFFF;}
	.st6{fill:url(#XMLID_3_);}
</style>
<pattern  width="15.6" height="14.8" patternUnits="userSpaceOnUse" id="New_Pattern_Swatch_5" viewBox="0 -14.8 15.6 14.8" style="overflow:visible;">
	<g id="XMLID_408_">
		<polygon id="XMLID_415_" class="st0" points="0,0 15.6,0 15.6,-14.8 0,-14.8 		"/>
		<polygon id="XMLID_409_" class="st1" points="7.8,-14.8 10.2,-9.9 15.6,-9.2 11.7,-5.4 12.6,0 7.8,-2.5 3,0 3.9,-5.4 0,-9.2 
			5.4,-9.9 		"/>
	</g>
</pattern>
<g id="Layer_2">
	<g id="XMLID_1_">
		<path id="XMLID_26_" class="st2" d="M2.1,28.9L28,3.1l178.4,308.4l-23.8,23.6c0,0-2.9,3-7.3,3s-158.3,0-164.6,0
			s-10.5-5.5-10.5-10.6s0-287.5,0-292.8C0.1,31.6,2.1,28.9,2.1,28.9z"/>
	</g>
</g>
<g id="Layer_1" class="st3">
	<g id="XMLID_536_" class="st4">
		<path id="XMLID_23_" class="st5" d="M198.5,314.5H36.7c-6.6,0-12-5.4-12-12V11.6c0-6.6,5.4-12,12-12h161.7c6.6,0,12,5.4,12,12
			v290.9C210.5,309.1,205.1,314.5,198.5,314.5z"/>
	</g>
	<g id="XMLID_465_" class="st4">
		<path id="XMLID_18_" class="st1" d="M197.4,12.7v288.8H37.8V12.7H197.4 M202.4,7.7H32.8v298.8h169.6V7.7L202.4,7.7z"/>
	</g>
	<g id="XMLID_434_" class="st4">
		<pattern  id="XMLID_3_" xlink:href="#New_Pattern_Swatch_5" patternTransform="matrix(1 0 0 1 -6.9744 -4.5507)">
		</pattern>
		<rect id="XMLID_16_" x="41.7" y="16.8" class="st6" width="152" height="281.3"/>
		<path id="XMLID_13_" class="st1" d="M192.6,17.8V297h-150V17.8H192.6 M194.6,15.8h-154V299h154V15.8L194.6,15.8z"/>
	</g>
</g>
</svg>
